<?xml version="1.0" encoding="utf-8"?>
<!-- Generator: Adobe Illustrator 20.0.0, SVG Export Plug-In . SVG Version: 6.00 Build 0)  -->
<svg version="1.1" id="Layer_1" xmlns="http://www.w3.org/2000/svg" xmlns:xlink="http://www.w3.org/1999/xlink" x="0px" y="0px"
	 viewBox="0 0 507 321" style="enable-background:new 0 0 507 321;" xml:space="preserve">
<style type="text/css">
	.st0{fill:#6B6B6B;}
	.st1{fill:#F4F4F4;}
</style>
<g>
	<g>
		<path class="st0" d="M306.4,36.5c2.2,1.7,4.8,1.1,7.2,1.5c19.7,3.3,37.1,11.1,51,25.7c11.1,11.8,17.2,25.9,19.5,41.9
			c0.2,1.1,0.5,2.3,0.4,3.4c-0.2,2.8,1,2.2,2.7,1.3c17.6-9.1,35.6-10.9,53.8-1.8c13,6.5,22.4,16.9,29.9,29.1
			c9.2,15,14.4,31.4,16.3,48.8c0.1,0.8-0.3,1.8,0.7,2.3c0,5.8,0,11.5,0,17.3c-1.4,2.7-1.1,5.7-1.6,8.6c-2.6,14.5-7.8,27.8-18.2,38.5
			c-11.3,11.7-25.5,17-41.4,18.6c-13.3,1.3-26.3-0.3-39.3-3.3c-1.7-0.4-2.9-0.3-4.4,0.7c-19.4,12.1-40.7,18.7-63.3,21.6
			c-30.1,3.9-59.5,0.3-88.1-9.5c-1.6-0.6-3-0.4-4.5,0.3c-17.6,7.4-35.8,12.5-54.9,13.7c-24.4,1.6-47.3-3-68.2-16.1
			c-6.3-3.9-12.4-8.1-17.6-13.5c-0.9-0.9-1.7-1.3-3-1.1c-27.9,3.5-50-12-61.5-34.7c-3.6-7.2-6-14.9-7.1-22.9
			c-0.1-0.9,0.2-2.1-0.9-2.8c0-4.4,0-8.7,0-13.1c1.5-1.9,1.1-4.3,1.6-6.4c3.6-18.3,16.1-31.1,34.1-34.8c5.1-1,10.3-0.9,15.4-0.6
			c1.7,0.1,2.4,0,1.8-2.1c-8.8-26.9-1.4-50.1,17.6-69.5c19.7-20.1,44.3-30.2,72.7-29.1c22.7,0.8,41.9,10,57.1,27
			c1,1.1,1.7,2.2,2.9,0.1c8.4-14.7,21.3-24,36.6-30.4c9.6-4,19.6-6.2,29.9-7.5c0.9-0.1,2.2,0.3,2.8-0.9
			C293.1,36.5,299.8,36.5,306.4,36.5z M391.9,263c7.2,2.4,22.7,3.8,33.3,3c27.5-2,46.9-18.1,53.8-44.8c5.1-19.8,3.2-39.4-2.9-58.7
			c-4.9-15.3-12.4-29.1-24.4-40.1c-6.6-6.1-14.1-10.5-23-12.6c-14.9-3.6-28.6,0-41.6,7.3c-1.5,0.8-2.1,1.7-2.1,3.5
			c0,3.1-0.3,6.3-0.6,9.4c-0.2,1.9-1.3,3.2-3.3,3c-2-0.2-2.9-1.5-2.8-3.4c0-0.6,0.1-1.2,0.1-1.8c0.7-6.8,0.7-13.6-0.1-20.4
			c-2.5-21.2-12.1-38.1-30-50c-13.5-9-28.7-13.2-44.7-14.3c-19.4-1.3-38,1.8-55.4,10.9c-11.5,6.1-20.7,14.5-26.8,26.2
			c-0.9,1.7-0.8,2.9,0.3,4.5c2.7,3.7,4.9,7.7,7,11.7c1,1.9,1.2,3.7-0.8,5c-1.7,1-3.3,0.2-4.6-2.1c-2.9-5.4-6-10.7-9.8-15.5
			c-12.1-15.6-27.5-26.1-47.2-28.7c-33.3-4.4-61.1,7.2-82.8,32.2c-15.3,17.6-18.8,38.2-10.2,60.4c2.2,5.7,5.3,11,8.9,16
			c1.3,1.7,1.4,3.5-0.6,4.8c-1.8,1.2-3.3,0.4-4.5-1.2c-1.1-1.5-2.5-2.9-3-4.6c-2.3-7-7.8-8-14-7.7c-0.9,0-1.7,0-2.6,0
			c-19.3,0.5-32.8,11.5-36.3,30.4c-3.6,19.4,1,37.2,12.7,53c10.7,14.5,25.4,21.5,43.5,20.9c7.4-0.2,14.5-2.1,21.5-4.3
			c3-0.9,4.6-0.5,5.3,1.5c0.7,2-0.4,3.4-3.3,4.4c-1.9,0.6-3.9,1.1-5.8,1.7c-0.7,0.2-1.8,0.1-2,1c-0.2,0.8,0.8,1.3,1.4,1.7
			c1.9,1.5,3.9,2.9,5.8,4.4c14.8,11.3,31.4,17.7,49.9,19.7c20.1,2.2,39.6-0.9,58.7-7.2c3.8-1.3,7.7-2.5,11.9-4.5
			c-2.9-1.3-5.2-2.2-7.4-3.3c-1.8-0.9-2.7-2.3-1.8-4.3c0.8-1.8,2.4-2.2,4.2-1.4c0.6,0.2,1.1,0.5,1.7,0.7
			c14.9,6.6,30.4,11.4,46.5,14.2c24.4,4.3,48.8,4.2,72.9-1.7c20.6-5,40.1-12.5,55.5-28c1.3-1.3,2.9-1.4,4.2-0.2
			c1.5,1.3,1.5,3,0.2,4.4C395.4,259.7,393.7,261.2,391.9,263z"/>
		<path class="st1" d="M391.9,263c1.9-1.8,3.5-3.4,5.1-5c1.3-1.4,1.3-3.1-0.2-4.4c-1.4-1.2-2.9-1.1-4.2,0.2
			c-15.4,15.5-34.8,23-55.5,28c-24.1,5.9-48.5,6-72.9,1.7c-16.1-2.8-31.6-7.7-46.5-14.2c-0.6-0.2-1.1-0.5-1.7-0.7
			c-1.8-0.8-3.4-0.4-4.2,1.4c-0.9,2,0,3.4,1.8,4.3c2.3,1.1,4.6,2,7.4,3.3c-4.2,1.9-8.1,3.2-11.9,4.5c-19.1,6.2-38.6,9.3-58.7,7.2
			c-18.4-2-35.1-8.4-49.9-19.7c-1.9-1.5-3.9-2.9-5.8-4.4c-0.6-0.5-1.6-0.9-1.4-1.7c0.2-0.9,1.3-0.7,2-1c1.9-0.6,3.9-1.1,5.8-1.7
			c3-1,4-2.4,3.3-4.4c-0.7-2-2.3-2.4-5.3-1.5c-7,2.2-14.1,4.1-21.5,4.3c-18.1,0.6-32.8-6.4-43.5-20.9c-11.7-15.8-16.3-33.6-12.7-53
			c3.5-18.9,17-29.9,36.3-30.4c0.9,0,1.8,0,2.6,0c6.3-0.3,11.7,0.7,14,7.7c0.6,1.7,2,3.1,3,4.6c1.1,1.6,2.6,2.5,4.5,1.2
			c1.9-1.3,1.8-3,0.6-4.8c-3.6-5-6.7-10.3-8.9-16c-8.6-22.1-5.1-42.8,10.2-60.4c21.7-25,49.5-36.6,82.8-32.2
			c19.7,2.6,35.1,13.2,47.2,28.7c3.8,4.8,6.9,10.1,9.8,15.5c1.2,2.3,2.9,3.1,4.6,2.1c2.1-1.3,1.9-3.1,0.8-5c-2.1-4-4.3-8-7-11.7
			c-1.1-1.5-1.2-2.8-0.3-4.5c6.1-11.6,15.4-20.1,26.8-26.2c17.3-9.1,36-12.2,55.4-10.9c16.1,1.1,31.2,5.3,44.7,14.3
			c17.9,11.9,27.5,28.9,30,50c0.8,6.8,0.8,13.6,0.1,20.4c-0.1,0.6-0.1,1.2-0.1,1.8c0,1.9,0.8,3.3,2.8,3.4c2,0.2,3.1-1.1,3.3-3
			c0.3-3.1,0.6-6.3,0.6-9.4c0-1.7,0.6-2.6,2.1-3.5c13-7.3,26.6-10.9,41.6-7.3c8.8,2.1,16.4,6.5,23,12.6c12,11,19.5,24.8,24.4,40.1
			c6.2,19.3,8,38.9,2.9,58.7c-6.9,26.7-26.3,42.8-53.8,44.8C414.6,266.8,399.1,265.5,391.9,263z"/>
	</g>
</g>
</svg>
