<?xml version="1.0" encoding="utf-8"?>
<!-- Generator: Adobe Illustrator 20.0.0, SVG Export Plug-In . SVG Version: 6.00 Build 0)  -->
<svg version="1.1" id="Layer_1" xmlns="http://www.w3.org/2000/svg" xmlns:xlink="http://www.w3.org/1999/xlink" x="0px" y="0px"
	 viewBox="0 0 163 245" style="enable-background:new 0 0 163 245;" xml:space="preserve">
<style type="text/css">
	.st0{fill:#89B0EF;}
	.st1{fill:#CBECF1;}
	.st2{fill:#E8F6F8;}
	.st3{fill:#E0F3F6;}
	.st4{fill:#A5DDE7;}
</style>
<g>
	<g>
		<path class="st0" d="M82.8,39.2c2,0.7,1.9,2.1,1.9,3.4c0.1,33.6,9.7,65.2,20,96.7c3.3,10.1,6.4,20.3,6.5,31.1
			c0.2,17.8-2.4,34.8-12.7,49.9c-8.8,12.9-23.6,13-32.7,0.3c-8.5-11.7-11.5-25.3-12.8-39.3c-1.6-17.2,2.9-33.3,8-49.4
			c6.9-22,13.5-44.2,17.5-67c1.1-6.2,1.7-12.5,2.5-18.8C81.4,43.7,81.4,41.3,82.8,39.2z M87.1,225.1c6.2-1.6,9.4-6.4,12.1-11.5
			c10.2-19.3,11.4-39.6,6.7-60.6c-2.2-7.8-3.9-15.8-7.9-23c-0.7-4.8-2-9.4-3.5-13.9c-4.5-13.7-7.4-27.7-9.7-41.9
			c-0.8-5.4-1.5-10.8-2.4-17.2c-4,25.4-10.7,49-18,72.6c-5.5,17.5-11.2,35-8.5,54c1.4,10.1,3.3,20,8,29.1
			c2.9,5.6,6.3,11.2,12.6,13.5C80,227.5,84,229.4,87.1,225.1z"/>
		<path class="st1" d="M84.9,74.2c2.3,14.2,5.2,28.2,9.7,41.9c1.5,4.5,2.8,9.2,3.5,13.9c-2.1,0.9-2.5,3-3.4,4.7
			c-9.1,18.5-18.2,37.1-27.4,55.6c-0.9,1.7-1.3,3.9-3.4,4.7c-1.3-2.7-1.7-5.6-1.9-8.6c-0.9-13.4,1.6-26.3,5.7-39.1
			c4.5-14,8.6-28.1,11.7-42.6C81.6,94.6,82.3,84.2,84.9,74.2z"/>
		<path class="st2" d="M105.9,153c4.8,21,3.6,41.3-6.7,60.6c-2.7,5.1-5.9,10-12.1,11.5c-6.7-0.2-12.1-2.7-15.2-9.1
			c3.9-2.5,4-7.1,5.8-10.7c7.3-14.3,14.1-28.8,21.5-43.1C100.9,159,101.4,154.4,105.9,153z"/>
		<path class="st3" d="M105.9,153c-4.5,1.4-5,6-6.7,9.2C91.8,176.5,85,191,77.8,205.3c-1.8,3.6-2,8.2-5.8,10.7
			c-4.9-6.2-7.4-13.2-8-21c2.2-0.8,2.6-2.9,3.4-4.7c9.1-18.5,18.2-37.1,27.4-55.6c0.9-1.7,1.3-3.8,3.4-4.7
			C102,137.2,103.7,145.2,105.9,153z"/>
		<path class="st4" d="M63.9,195c0.6,7.8,3.1,14.9,8,21c3,6.4,8.4,8.9,15.2,9.1c-3.1,4.3-7.1,2.4-10.6,1.1
			c-6.4-2.4-9.7-7.9-12.6-13.5c-4.7-9.1-6.6-19-8-29.1c-2.7-18.9,3.1-36.5,8.5-54c7.4-23.5,14.1-47.2,18-72.6
			c0.9,6.4,1.7,11.8,2.4,17.2c-2.6,10-3.3,20.4-5.5,30.6c-3.1,14.4-7.2,28.6-11.7,42.6c-4.1,12.8-6.6,25.7-5.7,39.1
			C62.2,189.4,62.6,192.3,63.9,195z"/>
	</g>
</g>
</svg>
